<svg width="993" height="207" viewBox="0 0 993 207" fill="none" xmlns="http://www.w3.org/2000/svg">
<path fill-rule="evenodd" clip-rule="evenodd" d="M0 33.1116C0 24.3299 3.48853 15.9078 9.69817 9.69816C15.9078 3.48853 24.3299 0 33.1116 0H187.632C196.414 0 204.836 3.48853 211.046 9.69816C217.255 15.9078 220.744 24.3299 220.744 33.1116V143.484C220.744 152.265 217.255 160.687 211.046 166.897C204.836 173.107 196.414 176.595 187.632 176.595H58.8614L22.0744 204.188C12.9797 211.009 0 204.519 0 193.151V33.1116Z" fill="#03061D"/>
<path d="M70.5115 63.8275C62.5674 63.8275 55.3842 67.0387 50.1825 72.2492C47.5088 74.9159 45.3884 78.0846 43.9431 81.5733C42.4978 85.062 41.7562 88.8019 41.7608 92.5782C41.7608 100.522 44.972 107.705 50.1825 112.907C55.393 118.126 62.5674 121.329 70.5115 121.329C77.3232 121.329 83.551 118.976 88.4696 115.021C89.1492 114.475 89.9297 114.069 90.7665 113.824C91.6033 113.58 92.4801 113.503 93.3467 113.597C94.2134 113.692 95.0529 113.956 95.8175 114.375C96.582 114.794 97.2565 115.359 97.8025 116.039C98.3485 116.718 98.7553 117.499 98.9997 118.336C99.2441 119.172 99.3212 120.049 99.2268 120.916C99.1323 121.783 98.868 122.622 98.4491 123.387C98.0302 124.151 97.4648 124.826 96.7852 125.372C89.3376 131.357 80.0659 134.613 70.5115 134.598C58.9139 134.598 48.3956 129.892 40.7965 122.293C36.8908 118.394 33.7933 113.761 31.6817 108.662C29.5701 103.563 28.4858 98.0973 28.4912 92.5782C28.4912 80.9717 33.1975 70.4622 40.7965 62.8632C44.696 58.9575 49.3281 55.86 54.4273 53.7484C59.5265 51.6367 64.9924 50.5525 70.5115 50.5579C81.9587 50.5579 91.442 54.0876 100.226 62.8632C107.578 70.2234 111.718 79.804 115.354 88.2523L115.84 89.3758C119.786 98.5052 123.448 106.547 129.8 112.907C135.01 118.126 142.185 121.329 150.129 121.329C158.073 121.329 165.256 118.118 170.458 112.907C175.677 107.697 178.879 100.522 178.879 92.5782C178.879 84.6341 175.668 77.4509 170.458 72.2492C167.791 69.5755 164.622 67.4551 161.134 66.0098C157.645 64.5645 153.905 63.8229 150.129 63.8275C143.317 63.8275 137.089 66.1806 132.171 70.1349C130.798 71.2376 129.044 71.75 127.293 71.5592C125.543 71.3684 123.94 70.4901 122.838 69.1176C121.735 67.7451 121.223 65.9907 121.413 64.2404C121.604 62.4902 122.483 60.8874 123.855 59.7847C131.303 53.7996 140.574 50.5436 150.129 50.5579C161.726 50.5579 172.245 55.2642 179.844 62.8632C183.749 66.7627 186.847 71.3948 188.959 76.494C191.07 81.5932 192.154 87.0591 192.149 92.5782C192.149 104.185 187.443 114.694 179.844 122.293C175.944 126.199 171.312 129.296 166.213 131.408C161.114 133.52 155.648 134.604 150.129 134.598C138.522 134.598 128.013 129.892 120.414 122.293C112.019 113.889 107.498 103.539 103.659 94.6394L103.623 94.5509C99.616 85.2711 96.3694 77.7782 90.8404 72.2492C84.6657 66.0744 78.6059 63.8275 70.5115 63.8275Z" fill="white"/>
<path d="M279.054 142.156L316.965 45.4749H337.119L375.171 142.156H358.259L349.662 119.748H303.858L295.261 142.156H279.054ZM308.932 106.359H344.447L333.595 78.0309C333.314 77.1853 332.891 76.0108 332.327 74.5075C331.763 73.0042 331.153 71.36 330.495 69.5748C329.931 67.7896 329.32 66.0045 328.663 64.2193C328.099 62.3402 327.582 60.6489 327.112 59.1456H326.267C325.703 60.9308 324.998 63.0448 324.153 65.4877C323.307 67.9306 322.462 70.2795 321.616 72.5344C320.864 74.7894 320.207 76.6216 319.643 78.0309L308.932 106.359ZM412.986 143.847C407.818 143.847 403.261 143.284 399.315 142.156C395.369 141.029 392.08 139.478 389.45 137.505C386.819 135.532 384.799 133.183 383.389 130.459C382.074 127.64 381.416 124.539 381.416 121.157C381.416 120.687 381.416 120.264 381.416 119.889C381.51 119.513 381.557 119.184 381.557 118.902H396.074C396.074 119.184 396.074 119.466 396.074 119.748C396.074 119.936 396.074 120.17 396.074 120.452C396.074 123.365 396.872 125.714 398.469 127.499C400.067 129.19 402.181 130.412 404.812 131.163C407.536 131.821 410.496 132.15 413.69 132.15C416.509 132.15 419.093 131.821 421.442 131.163C423.885 130.412 425.858 129.331 427.361 127.922C428.958 126.512 429.757 124.727 429.757 122.566C429.757 119.748 428.77 117.587 426.797 116.083C424.824 114.58 422.24 113.406 419.046 112.56C415.851 111.62 412.516 110.634 409.04 109.6C405.939 108.755 402.838 107.862 399.738 106.923C396.731 105.889 394.007 104.574 391.564 102.976C389.121 101.379 387.148 99.359 385.644 96.9162C384.141 94.4733 383.389 91.4197 383.389 87.7554C383.389 84.279 384.141 81.2254 385.644 78.5946C387.148 75.9639 389.215 73.7559 391.846 71.9707C394.57 70.1855 397.765 68.8232 401.429 67.8836C405.187 66.944 409.274 66.4742 413.69 66.4742C418.294 66.4742 422.381 66.991 425.952 68.0245C429.522 68.9641 432.529 70.3265 434.972 72.1116C437.508 73.8968 439.435 76.0578 440.75 78.5946C442.065 81.0375 442.723 83.6683 442.723 86.487C442.723 87.0507 442.676 87.6614 442.582 88.3191C442.582 88.8829 442.582 89.2587 442.582 89.4466H428.207V88.1782C428.207 86.2991 427.69 84.6079 426.656 83.1046C425.623 81.6012 423.979 80.3798 421.724 79.4402C419.563 78.5007 416.65 78.0309 412.986 78.0309C410.543 78.0309 408.382 78.2658 406.503 78.7356C404.624 79.1114 403.073 79.6751 401.852 80.4268C400.63 81.1784 399.691 82.071 399.033 83.1046C398.469 84.1381 398.188 85.3125 398.188 86.6279C398.188 88.7889 398.939 90.4801 400.443 91.7016C402.04 92.8291 404.107 93.8156 406.644 94.6612C409.181 95.4129 411.905 96.2585 414.818 97.198C418.2 98.1376 421.63 99.1241 425.106 100.158C428.583 101.097 431.777 102.319 434.69 103.822C437.696 105.325 440.092 107.392 441.877 110.023C443.757 112.654 444.696 116.177 444.696 120.593C444.696 124.633 443.897 128.157 442.3 131.163C440.703 134.17 438.448 136.613 435.535 138.492C432.717 140.277 429.381 141.593 425.529 142.438C421.677 143.378 417.496 143.847 412.986 143.847ZM486.894 143.847C481.726 143.847 477.169 143.284 473.223 142.156C469.277 141.029 465.989 139.478 463.358 137.505C460.727 135.532 458.707 133.183 457.298 130.459C455.982 127.64 455.325 124.539 455.325 121.157C455.325 120.687 455.325 120.264 455.325 119.889C455.419 119.513 455.465 119.184 455.465 118.902H469.982C469.982 119.184 469.982 119.466 469.982 119.748C469.982 119.936 469.982 120.17 469.982 120.452C469.982 123.365 470.78 125.714 472.378 127.499C473.975 129.19 476.089 130.412 478.72 131.163C481.444 131.821 484.404 132.15 487.599 132.15C490.417 132.15 493.001 131.821 495.35 131.163C497.793 130.412 499.766 129.331 501.269 127.922C502.867 126.512 503.665 124.727 503.665 122.566C503.665 119.748 502.679 117.587 500.706 116.083C498.732 114.58 496.149 113.406 492.954 112.56C489.76 111.62 486.424 110.634 482.948 109.6C479.847 108.755 476.747 107.862 473.646 106.923C470.639 105.889 467.915 104.574 465.472 102.976C463.029 101.379 461.056 99.359 459.553 96.9162C458.049 94.4733 457.298 91.4197 457.298 87.7554C457.298 84.279 458.049 81.2254 459.553 78.5946C461.056 75.9639 463.123 73.7559 465.754 71.9707C468.478 70.1855 471.673 68.8232 475.337 67.8836C479.096 66.944 483.183 66.4742 487.599 66.4742C492.202 66.4742 496.29 66.991 499.86 68.0245C503.43 68.9641 506.437 70.3265 508.88 72.1116C511.417 73.8968 513.343 76.0578 514.658 78.5946C515.974 81.0375 516.631 83.6683 516.631 86.487C516.631 87.0507 516.584 87.6614 516.49 88.3191C516.49 88.8829 516.49 89.2587 516.49 89.4466H502.115V88.1782C502.115 86.2991 501.598 84.6079 500.565 83.1046C499.531 81.6012 497.887 80.3798 495.632 79.4402C493.471 78.5007 490.558 78.0309 486.894 78.0309C484.451 78.0309 482.29 78.2658 480.411 78.7356C478.532 79.1114 476.982 79.6751 475.76 80.4268C474.539 81.1784 473.599 82.071 472.941 83.1046C472.378 84.1381 472.096 85.3125 472.096 86.6279C472.096 88.7889 472.847 90.4801 474.351 91.7016C475.948 92.8291 478.015 93.8156 480.552 94.6612C483.089 95.4129 485.813 96.2585 488.726 97.198C492.109 98.1376 495.538 99.1241 499.014 100.158C502.491 101.097 505.685 102.319 508.598 103.822C511.605 105.325 514 107.392 515.786 110.023C517.665 112.654 518.604 116.177 518.604 120.593C518.604 124.633 517.806 128.157 516.208 131.163C514.611 134.17 512.356 136.613 509.444 138.492C506.625 140.277 503.289 141.593 499.437 142.438C495.585 143.378 491.404 143.847 486.894 143.847ZM533.461 55.1995V40.2604H548.118V55.1995H533.461ZM533.461 142.156V68.0245H548.118V142.156H533.461ZM594.384 143.847C589.217 143.847 584.66 143.284 580.714 142.156C576.767 141.029 573.479 139.478 570.848 137.505C568.217 135.532 566.197 133.183 564.788 130.459C563.473 127.64 562.815 124.539 562.815 121.157C562.815 120.687 562.815 120.264 562.815 119.889C562.909 119.513 562.956 119.184 562.956 118.902H577.472C577.472 119.184 577.472 119.466 577.472 119.748C577.472 119.936 577.472 120.17 577.472 120.452C577.472 123.365 578.271 125.714 579.868 127.499C581.465 129.19 583.579 130.412 586.21 131.163C588.935 131.821 591.894 132.15 595.089 132.15C597.908 132.15 600.491 131.821 602.84 131.163C605.283 130.412 607.256 129.331 608.76 127.922C610.357 126.512 611.156 124.727 611.156 122.566C611.156 119.748 610.169 117.587 608.196 116.083C606.223 114.58 603.639 113.406 600.444 112.56C597.25 111.62 593.914 110.634 590.438 109.6C587.338 108.755 584.237 107.862 581.136 106.923C578.13 105.889 575.405 104.574 572.962 102.976C570.519 101.379 568.546 99.359 567.043 96.9162C565.54 94.4733 564.788 91.4197 564.788 87.7554C564.788 84.279 565.54 81.2254 567.043 78.5946C568.546 75.9639 570.613 73.7559 573.244 71.9707C575.969 70.1855 579.163 68.8232 582.828 67.8836C586.586 66.944 590.673 66.4742 595.089 66.4742C599.693 66.4742 603.78 66.991 607.35 68.0245C610.921 68.9641 613.927 70.3265 616.37 72.1116C618.907 73.8968 620.833 76.0578 622.148 78.5946C623.464 81.0375 624.122 83.6683 624.122 86.487C624.122 87.0507 624.075 87.6614 623.981 88.3191C623.981 88.8829 623.981 89.2587 623.981 89.4466H609.605V88.1782C609.605 86.2991 609.088 84.6079 608.055 83.1046C607.021 81.6012 605.377 80.3798 603.122 79.4402C600.961 78.5007 598.049 78.0309 594.384 78.0309C591.941 78.0309 589.78 78.2658 587.901 78.7356C586.022 79.1114 584.472 79.6751 583.25 80.4268C582.029 81.1784 581.089 82.071 580.432 83.1046C579.868 84.1381 579.586 85.3125 579.586 86.6279C579.586 88.7889 580.338 90.4801 581.841 91.7016C583.438 92.8291 585.505 93.8156 588.042 94.6612C590.579 95.4129 593.304 96.2585 596.216 97.198C599.599 98.1376 603.028 99.1241 606.505 100.158C609.981 101.097 613.176 102.319 616.088 103.822C619.095 105.325 621.491 107.392 623.276 110.023C625.155 112.654 626.095 116.177 626.095 120.593C626.095 124.633 625.296 128.157 623.699 131.163C622.101 134.17 619.847 136.613 616.934 138.492C614.115 140.277 610.78 141.593 606.927 142.438C603.075 143.378 598.894 143.847 594.384 143.847ZM659.414 143.847C655.186 143.847 651.85 143.049 649.407 141.452C647.058 139.76 645.367 137.646 644.334 135.11C643.394 132.479 642.924 129.707 642.924 126.794V80.1449H633.623V68.0245H643.206L645.884 47.3071H657.581V68.0245H670.97V80.1449H657.581V125.103C657.581 127.264 658.051 128.908 658.991 130.036C659.93 131.163 661.481 131.727 663.642 131.727H670.97V141.593C670.031 141.968 668.856 142.297 667.447 142.579C666.131 142.955 664.769 143.237 663.36 143.425C661.95 143.707 660.635 143.847 659.414 143.847ZM685.865 142.156V45.4749H701.65V128.486H749.85V142.156H685.865ZM793.224 143.847C785.519 143.847 778.989 142.485 773.634 139.76C768.372 136.942 764.379 132.667 761.654 126.935C759.023 121.204 757.708 113.922 757.708 105.09C757.708 96.1645 759.023 88.8829 761.654 83.2455C764.379 77.5141 768.372 73.2861 773.634 70.5614C778.989 67.7427 785.519 66.3333 793.224 66.3333C801.116 66.3333 807.693 67.7427 812.954 70.5614C818.216 73.2861 822.162 77.5141 824.793 83.2455C827.518 88.8829 828.88 96.1645 828.88 105.09C828.88 113.922 827.518 121.204 824.793 126.935C822.162 132.667 818.216 136.942 812.954 139.76C807.693 142.485 801.116 143.847 793.224 143.847ZM793.224 131.727C797.921 131.727 801.774 130.834 804.78 129.049C807.787 127.17 809.995 124.351 811.404 120.593C812.907 116.835 813.659 112.09 813.659 106.359V103.822C813.659 98.0906 812.907 93.3458 811.404 89.5876C809.995 85.8293 807.787 83.0576 804.78 81.2724C801.774 79.3933 797.921 78.4537 793.224 78.4537C788.62 78.4537 784.814 79.3933 781.808 81.2724C778.801 83.0576 776.546 85.8293 775.043 89.5876C773.634 93.3458 772.929 98.0906 772.929 103.822V106.359C772.929 112.09 773.634 116.835 775.043 120.593C776.546 124.351 778.801 127.17 781.808 129.049C784.814 130.834 788.62 131.727 793.224 131.727ZM875.39 143.847C867.685 143.847 861.155 142.485 855.8 139.76C850.538 136.942 846.545 132.667 843.82 126.935C841.189 121.204 839.874 113.922 839.874 105.09C839.874 96.1645 841.189 88.8829 843.82 83.2455C846.545 77.5141 850.538 73.2861 855.8 70.5614C861.155 67.7427 867.685 66.3333 875.39 66.3333C883.282 66.3333 889.859 67.7427 895.12 70.5614C900.382 73.2861 904.328 77.5141 906.959 83.2455C909.684 88.8829 911.046 96.1645 911.046 105.09C911.046 113.922 909.684 121.204 906.959 126.935C904.328 132.667 900.382 136.942 895.12 139.76C889.859 142.485 883.282 143.847 875.39 143.847ZM875.39 131.727C880.087 131.727 883.94 130.834 886.946 129.049C889.953 127.17 892.161 124.351 893.57 120.593C895.073 116.835 895.825 112.09 895.825 106.359V103.822C895.825 98.0906 895.073 93.3458 893.57 89.5876C892.161 85.8293 889.953 83.0576 886.946 81.2724C883.94 79.3933 880.087 78.4537 875.39 78.4537C870.786 78.4537 866.98 79.3933 863.974 81.2724C860.967 83.0576 858.712 85.8293 857.209 89.5876C855.8 93.3458 855.095 98.0906 855.095 103.822V106.359C855.095 112.09 855.8 116.835 857.209 120.593C858.712 124.351 860.967 127.17 863.974 129.049C866.98 130.834 870.786 131.727 875.39 131.727ZM925.986 166.538V68.0245H937.966L939.234 78.1718H940.221C942.758 74.2257 945.999 71.266 949.945 69.2929C953.891 67.3199 958.307 66.3333 963.193 66.3333C969.3 66.3333 974.515 67.6957 978.837 70.4204C983.253 73.1452 986.635 77.3732 988.984 83.1046C991.333 88.8359 992.508 96.2585 992.508 105.372C992.508 114.204 991.286 121.486 988.843 127.217C986.494 132.855 983.159 137.036 978.837 139.76C974.515 142.485 969.535 143.847 963.898 143.847C960.609 143.847 957.556 143.472 954.737 142.72C951.918 141.968 949.382 140.794 947.127 139.197C944.966 137.599 943.086 135.579 941.489 133.136H940.644V166.538H925.986ZM958.824 131.163C963.24 131.163 966.81 130.318 969.535 128.627C972.26 126.841 974.233 124.117 975.454 120.452C976.77 116.788 977.428 112.137 977.428 106.5V103.963C977.428 98.0436 976.77 93.2519 975.454 89.5876C974.139 85.9232 972.119 83.2455 969.394 81.5543C966.763 79.8631 963.334 79.0174 959.106 79.0174C954.784 79.0174 951.261 80.004 948.536 81.9771C945.811 83.8562 943.791 86.6749 942.476 90.4332C941.254 94.1914 940.644 98.7483 940.644 104.104V106.077C940.644 110.493 941.066 114.298 941.912 117.493C942.758 120.687 943.979 123.318 945.576 125.385C947.174 127.358 949.1 128.814 951.355 129.754C953.61 130.694 956.099 131.163 958.824 131.163Z" fill="#03061D"/>
<path fill-rule="evenodd" clip-rule="evenodd" d="M0 33.1116C0 24.3299 3.48853 15.9078 9.69817 9.69816C15.9078 3.48853 24.3299 0 33.1116 0H187.632C196.414 0 204.836 3.48853 211.046 9.69816C217.255 15.9078 220.744 24.3299 220.744 33.1116V143.484C220.744 152.265 217.255 160.687 211.046 166.897C204.836 173.107 196.414 176.595 187.632 176.595H58.8614L22.0744 204.188C12.9797 211.009 0 204.519 0 193.151V33.1116Z" fill="#03061D"/>
<path d="M70.5115 63.8275C62.5674 63.8275 55.3842 67.0387 50.1825 72.2492C47.5088 74.9159 45.3884 78.0846 43.9431 81.5733C42.4978 85.062 41.7562 88.8019 41.7608 92.5782C41.7608 100.522 44.972 107.705 50.1825 112.907C55.393 118.126 62.5674 121.329 70.5115 121.329C77.3232 121.329 83.551 118.976 88.4696 115.021C89.1492 114.475 89.9297 114.069 90.7665 113.824C91.6033 113.58 92.4801 113.503 93.3467 113.597C94.2134 113.692 95.0529 113.956 95.8175 114.375C96.582 114.794 97.2565 115.359 97.8025 116.039C98.3485 116.718 98.7553 117.499 98.9997 118.336C99.2441 119.172 99.3212 120.049 99.2268 120.916C99.1323 121.783 98.868 122.622 98.4491 123.387C98.0302 124.151 97.4648 124.826 96.7852 125.372C89.3376 131.357 80.0659 134.613 70.5115 134.598C58.9139 134.598 48.3956 129.892 40.7965 122.293C36.8908 118.394 33.7933 113.761 31.6817 108.662C29.5701 103.563 28.4858 98.0973 28.4912 92.5782C28.4912 80.9717 33.1975 70.4622 40.7965 62.8632C44.696 58.9575 49.3281 55.86 54.4273 53.7484C59.5265 51.6367 64.9924 50.5525 70.5115 50.5579C81.9587 50.5579 91.442 54.0876 100.226 62.8632C107.578 70.2234 111.718 79.804 115.354 88.2523L115.84 89.3758C119.786 98.5052 123.448 106.547 129.8 112.907C135.01 118.126 142.185 121.329 150.129 121.329C158.073 121.329 165.256 118.118 170.458 112.907C175.677 107.697 178.879 100.522 178.879 92.5782C178.879 84.6341 175.668 77.4509 170.458 72.2492C167.791 69.5755 164.622 67.4551 161.134 66.0098C157.645 64.5645 153.905 63.8229 150.129 63.8275C143.317 63.8275 137.089 66.1806 132.171 70.1349C130.798 71.2376 129.044 71.75 127.293 71.5592C125.543 71.3684 123.94 70.4901 122.838 69.1176C121.735 67.7451 121.223 65.9907 121.413 64.2404C121.604 62.4902 122.483 60.8874 123.855 59.7847C131.303 53.7996 140.574 50.5436 150.129 50.5579C161.726 50.5579 172.245 55.2642 179.844 62.8632C183.749 66.7627 186.847 71.3948 188.959 76.494C191.07 81.5932 192.154 87.0591 192.149 92.5782C192.149 104.185 187.443 114.694 179.844 122.293C175.944 126.199 171.312 129.296 166.213 131.408C161.114 133.52 155.648 134.604 150.129 134.598C138.522 134.598 128.013 129.892 120.414 122.293C112.019 113.889 107.498 103.539 103.659 94.6394L103.623 94.5509C99.616 85.2711 96.3694 77.7782 90.8404 72.2492C84.6657 66.0744 78.6059 63.8275 70.5115 63.8275Z" fill="white"/>
</svg>
